<?xml version="1.0" encoding="utf-8"?>
<!-- Generator: Adobe Illustrator 27.7.0, SVG Export Plug-In . SVG Version: 6.00 Build 0)  -->
<svg version="1.1" id="Layer_1" xmlns="http://www.w3.org/2000/svg" xmlns:xlink="http://www.w3.org/1999/xlink" x="0px" y="0px"
	 viewBox="-362.4 459.1 500 500" enable-background="new -362.4 459.1 500 500" xml:space="preserve">
<radialGradient id="SVGID_1_" cx="-1002.9115" cy="1088.6691" r="0.6375" gradientTransform="matrix(545.6736 0 0 -528.3113 547071.625 575749.0625)" gradientUnits="userSpaceOnUse">
	<stop  offset="0" style="stop-color:#442F55;stop-opacity:0.98"/>
	<stop  offset="1" style="stop-color:#12002C"/>
</radialGradient>
<path fill="url(#SVGID_1_)" d="M-341.6,493h457.7v445.3h-457.7V493z"/>
<g>
	<path fill="#D8A1FF" d="M-341.6,493h457.7v445.3h-457.7V493z M-362.4,959.1H137V472.2h-499.4V959.1z M-9.1,706.9
		c10.6,0,14.4,0,15.4-0.4c0-1.5,0.4-2.5,0.4-3.5c0-11.2-5.4-32-27-32c-20,0-28.5,17.5-30.6,36H-9.1z M-51.3,735.4
		c0.4,28.1,13.7,47,45.4,47c12.3,0,22.9-1.7,33.9-6.4c1.5-0.6,2.5-0.4,2.5,1.5v26c0,2.1-0.6,3.1-2.1,4.2c-11,5.4-24.8,7.9-41.8,7.9
		c-54.9,0-75.5-40.6-75.5-85.7c0-49.1,25.4-89.3,70.1-89.3c45.4,0,61.2,38.1,61.2,69.1c0,10-0.6,18.1-1.7,22.1
		c-0.4,1.7-1,2.3-2.7,2.7c-4.2,0.6-16.4,1.5-34.7,1.5h-54.5V735.4L-51.3,735.4z M-162.8,714.2c-5.8-23.1-20-73.4-25.2-97.8h-0.4
		c-4.4,24.3-15.8,65.5-24.3,97.8H-162.8L-162.8,714.2z M-221.3,747.9l-16.4,62.2c-0.4,1.7-1,2.3-3.1,2.3h-30.6
		c-2.1,0-2.5-0.6-2.1-3.1l59.1-206.6c1-3.7,1.7-6.7,2.1-17.1c0-1.5,0.6-2.1,1.7-2.1h43.7c1.5,0,2.1,0.4,2.5,2.1l66.2,224.1
		c0.4,1.7,0,2.7-1.7,2.7h-34.3c-1.7,0-2.7-0.6-3.1-2.1l-17.1-62.4L-221.3,747.9L-221.3,747.9z"/>
</g>
</svg>
